<svg width="81" height="81" viewBox="0 0 81 81" fill="none" xmlns="http://www.w3.org/2000/svg">
<path d="M59.8162 7.17456H21.5762L2.45618 40.2786L21.5762 73.3826H59.8162L78.9362 40.2786L59.8162 7.17456Z" stroke="black" stroke-width="0.8" stroke-miterlimit="10"/>
<path d="M59.8802 10.1343H25.0642L7.65619 40.2783L25.0642 70.4223H59.8802L77.2882 40.2783L59.8802 10.1343Z" stroke="black" stroke-width="0.8" stroke-miterlimit="10"/>
<path d="M59.9442 13.0945H28.5522L12.8562 40.2785L28.5522 67.4625H59.9442L75.6402 40.2785L59.9442 13.0945Z" stroke="black" stroke-width="0.8" stroke-miterlimit="10"/>
<path d="M60.0082 16.0546H32.0402L18.0562 40.2785L32.0402 64.5025H60.0082L73.9922 40.2785L60.0082 16.0546Z" stroke="black" stroke-width="0.8" stroke-miterlimit="10"/>
<path d="M60.0882 19.0144H35.5282L23.2562 40.2784L35.5282 61.5424H60.0882L72.3602 40.2784L60.0882 19.0144Z" stroke="black" stroke-width="0.8" stroke-miterlimit="10"/>
<path d="M60.1522 21.9746H39.0162L28.4562 40.2786L39.0162 58.5826H60.1522L70.7122 40.2786L60.1522 21.9746Z" stroke="black" stroke-width="0.8" stroke-miterlimit="10"/>
<path d="M60.2163 24.9503H42.5042L33.6562 40.2783L42.5042 55.6063H60.2163L69.0643 40.2783L60.2163 24.9503Z" stroke="black" stroke-width="0.8" stroke-miterlimit="10"/>
<path d="M60.2802 27.9104H45.9922L38.8562 40.2784L45.9922 52.6464H60.2802L67.4162 40.2784L60.2802 27.9104Z" stroke="black" stroke-width="0.8" stroke-miterlimit="10"/>
<path d="M60.3442 30.8706H49.4802L44.0562 40.2786L49.4802 49.6866H60.3442L65.7842 40.2786L60.3442 30.8706Z" stroke="black" stroke-width="0.8" stroke-miterlimit="10"/>
<path d="M60.4242 33.8304H52.9682L49.2562 40.2784L52.9682 46.7264H60.4242L64.1362 40.2784L60.4242 33.8304Z" stroke="black" stroke-width="0.8" stroke-miterlimit="10"/>
</svg>
